<?xml version="1.0"?>
<svg xmlns="http://www.w3.org/2000/svg" xmlns:xlink="http://www.w3.org/1999/xlink" xmlns:svgjs="http://svgjs.com/svgjs" version="1.1" width="512" height="512" x="0" y="0" viewBox="0 0 512 512" style="enable-background:new 0 0 512 512" xml:space="preserve" class=""><g>
<g xmlns="http://www.w3.org/2000/svg">
	<path style="" d="M13.195,498.805C21.343,506.954,32.593,512,45,512h212l15-21.865V280.136L257,257l-20.64-15H16.855   L0,257v210C0,479.407,5.046,490.657,13.195,498.805z" fill="#182034" data-original="#1689fc" class=""/>
	<path style="" d="M512,257V45c0-12.407-5.046-23.657-13.195-31.805S479.407,0,467,0H257l-15,20.641v213.111L257,257   l19.376,15h212.495L512,257z" fill="#182034" data-original="#1689fc" class=""/>
</g>
<path xmlns="http://www.w3.org/2000/svg" style="" d="M257,0H45C32.593,0,21.343,5.046,13.195,13.195S0,32.593,0,45v212h257V0z" fill="#93261a" data-original="#81c8ee" class=""/>
<g xmlns="http://www.w3.org/2000/svg">
	<path style="" d="M156.211,377l49.395-49.395c13.945-13.945-7.151-35.271-21.211-21.211L135,355.789l-49.395-49.395   c-13.945-13.945-35.271,7.151-21.211,21.211L113.789,377l-49.395,49.395c-14.003,14.003,7.208,35.214,21.211,21.211L135,398.211   l49.395,49.395c13.946,13.946,35.271-7.151,21.211-21.211L156.211,377z" fill="#e1e1e4" data-original="#e1e1e4" class=""/>
	<path style="" d="M195,120h-45V75c0-19.773-30-19.854-30,0v45H75c-19.773,0-19.854,30,0,30h45v45   c0,19.773,30,19.854,30,0v-45h45C214.773,150,214.854,120,195,120z" fill="#e1e1e4" data-original="#e1e1e4" class=""/>
</g>
<path xmlns="http://www.w3.org/2000/svg" style="" d="M437,150H317c-19.773,0-19.854-30,0-30h120C456.773,120,456.854,150,437,150z" fill="#d9d8db" data-original="#d9d8db" class=""/>
<path xmlns="http://www.w3.org/2000/svg" style="" d="M498.805,498.805C506.954,490.657,512,479.407,512,467V257H257v255h210  C479.407,512,490.657,506.954,498.805,498.805z" fill="#637097" data-original="#fe52a2" class=""/>
<g xmlns="http://www.w3.org/2000/svg">
	<path style="" d="M437,362H317c-19.773,0-19.854-30,0-30h120C456.773,332,456.854,362,437,362z" fill="#d9d8db" data-original="#d9d8db" class=""/>
	<path style="" d="M437,422H317c-19.773,0-19.854-30,0-30h120C456.773,392,456.854,422,437,422z" fill="#d9d8db" data-original="#d9d8db" class=""/>
</g>
<g xmlns="http://www.w3.org/2000/svg">
</g>
<g xmlns="http://www.w3.org/2000/svg">
</g>
<g xmlns="http://www.w3.org/2000/svg">
</g>
<g xmlns="http://www.w3.org/2000/svg">
</g>
<g xmlns="http://www.w3.org/2000/svg">
</g>
<g xmlns="http://www.w3.org/2000/svg">
</g>
<g xmlns="http://www.w3.org/2000/svg">
</g>
<g xmlns="http://www.w3.org/2000/svg">
</g>
<g xmlns="http://www.w3.org/2000/svg">
</g>
<g xmlns="http://www.w3.org/2000/svg">
</g>
<g xmlns="http://www.w3.org/2000/svg">
</g>
<g xmlns="http://www.w3.org/2000/svg">
</g>
<g xmlns="http://www.w3.org/2000/svg">
</g>
<g xmlns="http://www.w3.org/2000/svg">
</g>
<g xmlns="http://www.w3.org/2000/svg">
</g>
</g></svg>
